{
    "asset" : {
        "generator" : "Khronos glTF Blender I/O v3.2.43",
        "version" : "2.0"
    },
    "scene" : 0,
    "scenes" : [
        {
            "name" : "Scene",
            "nodes" : [
                0,
                1,
                2,
                3,
                4,
                5,
                6,
                7,
                8,
                9
            ]
        }
    ],
    "nodes" : [
        {
            "mesh" : 0,
            "name" : "Unknown",
            "rotation" : [
                -0.7071065902709961,
                0,
                0,
                0.7071069478988647
            ],
            "scale" : [
                1.393823266029358,
                1.393823266029358,
                1.393823266029358
            ],
            "translation" : [
                0,
                14.024085998535156,
                0
            ]
        },
        {
            "mesh" : 1,
            "name" : "Hands",
            "rotation" : [
                -0.7071065902709961,
                0,
                0,
                0.7071069478988647
            ],
            "scale" : [
                1.393823266029358,
                1.393823266029358,
                1.393823266029358
            ],
            "translation" : [
                0,
                14.024085998535156,
                0
            ]
        },
        {
            "mesh" : 2,
            "name" : "feet",
            "rotation" : [
                -0.7071065902709961,
                0,
                0,
                0.7071069478988647
            ],
            "scale" : [
                1.393823266029358,
                1.393823266029358,
                1.393823266029358
            ],
            "translation" : [
                0,
                14.024085998535156,
                0
            ]
        },
        {
            "mesh" : 3,
            "name" : "Legs",
            "rotation" : [
                -0.7071065902709961,
                0,
                0,
                0.7071069478988647
            ],
            "scale" : [
                1.393823266029358,
                1.393823266029358,
                1.393823266029358
            ],
            "translation" : [
                0,
                14.024085998535156,
                0
            ]
        },
        {
            "mesh" : 4,
            "name" : "Private",
            "rotation" : [
                -0.7071065902709961,
                0,
                0,
                0.7071069478988647
            ],
            "scale" : [
                1.393823266029358,
                1.393823266029358,
                1.393823266029358
            ],
            "translation" : [
                0,
                14.024085998535156,
                0
            ]
        },
        {
            "mesh" : 5,
            "name" : "Chest & Abdomen",
            "rotation" : [
                -0.7071065902709961,
                0,
                0,
                0.7071069478988647
            ],
            "scale" : [
                1.393823266029358,
                1.393823266029358,
                1.393823266029358
            ],
            "translation" : [
                0,
                14.024085998535156,
                0
            ]
        },
        {
            "mesh" : 6,
            "name" : "Arms",
            "rotation" : [
                -0.7071065902709961,
                0,
                0,
                0.7071069478988647
            ],
            "scale" : [
                1.393823266029358,
                1.393823266029358,
                1.393823266029358
            ],
            "translation" : [
                0,
                14.024085998535156,
                0
            ]
        },
        {
            "mesh" : 7,
            "name" : "UnderArm",
            "rotation" : [
                -0.7071065902709961,
                0,
                0,
                0.7071069478988647
            ],
            "scale" : [
                1.393823266029358,
                1.393823266029358,
                1.393823266029358
            ],
            "translation" : [
                0,
                14.024085998535156,
                0
            ]
        },
        {
            "mesh" : 8,
            "name" : "Neck",
            "rotation" : [
                -0.7071065902709961,
                0,
                0,
                0.7071069478988647
            ],
            "scale" : [
                1.393823266029358,
                1.393823266029358,
                1.393823266029358
            ],
            "translation" : [
                0,
                14.024085998535156,
                0
            ]
        },
        {
            "mesh" : 9,
            "name" : "Head",
            "rotation" : [
                -0.7071065902709961,
                0,
                0,
                0.7071069478988647
            ],
            "scale" : [
                1.393823266029358,
                1.393823266029358,
                1.393823266029358
            ],
            "translation" : [
                0,
                14.024085998535156,
                0
            ]
        }
    ],
    "materials" : [
        {
            "doubleSided" : true,
            "name" : "default",
            "pbrMetallicRoughness" : {
                "baseColorFactor" : [
                    0.800000011920929,
                    0.800000011920929,
                    0.800000011920929,
                    1
                ],
                "metallicFactor" : 0,
                "roughnessFactor" : 0.4000000059604645
            }
        },
        {
            "doubleSided" : true,
            "name" : "Material.003",
            "pbrMetallicRoughness" : {
                "baseColorFactor" : [
                    0.8000000715255737,
                    0.7193562388420105,
                    0.06934253871440887,
                    1
                ],
                "metallicFactor" : 0,
                "roughnessFactor" : 0.4000000059604645
            }
        },
        {
            "doubleSided" : true,
            "name" : "Material.007",
            "pbrMetallicRoughness" : {
                "baseColorFactor" : [
                    0.028381699696183205,
                    0.8000000715255737,
                    0.790787398815155,
                    1
                ],
                "metallicFactor" : 0,
                "roughnessFactor" : 0.4000000059604645
            }
        },
        {
            "doubleSided" : true,
            "name" : "Material.006",
            "pbrMetallicRoughness" : {
                "baseColorFactor" : [
                    0.028033632785081863,
                    0.017646731808781624,
                    0.8000000715255737,
                    1
                ],
                "metallicFactor" : 0,
                "roughnessFactor" : 0.4000000059604645
            }
        },
        {
            "doubleSided" : true,
            "name" : "Material.004",
            "pbrMetallicRoughness" : {
                "baseColorFactor" : [
                    0,
                    0,
                    0,
                    1
                ],
                "metallicFactor" : 0,
                "roughnessFactor" : 0.4000000059604645
            }
        },
        {
            "doubleSided" : true,
            "name" : "Material.005",
            "pbrMetallicRoughness" : {
                "baseColorFactor" : [
                    0.20439930260181427,
                    0.8000000715255737,
                    0.18418295681476593,
                    1
                ],
                "metallicFactor" : 0,
                "roughnessFactor" : 0.4000000059604645
            }
        },
        {
            "doubleSided" : true,
            "name" : "Material.002",
            "pbrMetallicRoughness" : {
                "baseColorFactor" : [
                    0.8000000715255737,
                    0.06058638542890549,
                    0.6980721950531006,
                    1
                ],
                "metallicFactor" : 0,
                "roughnessFactor" : 0.4000000059604645
            }
        },
        {
            "doubleSided" : true,
            "name" : "Material.010",
            "pbrMetallicRoughness" : {
                "baseColorFactor" : [
                    0.8000000715255737,
                    0.05188329145312309,
                    0.03358720242977142,
                    1
                ],
                "metallicFactor" : 0,
                "roughnessFactor" : 0.4000000059604645
            }
        },
        {
            "doubleSided" : true,
            "name" : "Material.008",
            "pbrMetallicRoughness" : {
                "baseColorFactor" : [
                    0.8000000715255737,
                    0.4932650029659271,
                    0.07797014713287354,
                    1
                ],
                "metallicFactor" : 0,
                "roughnessFactor" : 0.4000000059604645
            }
        },
        {
            "doubleSided" : true,
            "name" : "Material.009",
            "pbrMetallicRoughness" : {
                "baseColorFactor" : [
                    0.20862647891044617,
                    0.7725433111190796,
                    0.8000000715255737,
                    1
                ],
                "metallicFactor" : 0,
                "roughnessFactor" : 0.4000000059604645
            }
        }
    ],
    "meshes" : [
        {
            "name" : "FinalBaseMesh",
            "primitives" : [
                {
                    "attributes" : {
                        "POSITION" : 0,
                        "NORMAL" : 1
                    },
                    "indices" : 2,
                    "material" : 0
                }
            ]
        },
        {
            "name" : "FinalBaseMesh.001",
            "primitives" : [
                {
                    "attributes" : {
                        "POSITION" : 3,
                        "NORMAL" : 4
                    },
                    "indices" : 5,
                    "material" : 1
                }
            ]
        },
        {
            "name" : "FinalBaseMesh.002",
            "primitives" : [
                {
                    "attributes" : {
                        "POSITION" : 6,
                        "NORMAL" : 7
                    },
                    "indices" : 8,
                    "material" : 2
                }
            ]
        },
        {
            "name" : "FinalBaseMesh.003",
            "primitives" : [
                {
                    "attributes" : {
                        "POSITION" : 9,
                        "NORMAL" : 10
                    },
                    "indices" : 11,
                    "material" : 3
                }
            ]
        },
        {
            "name" : "FinalBaseMesh.004",
            "primitives" : [
                {
                    "attributes" : {
                        "POSITION" : 12,
                        "NORMAL" : 13
                    },
                    "indices" : 14,
                    "material" : 4
                }
            ]
        },
        {
            "name" : "FinalBaseMesh.005",
            "primitives" : [
                {
                    "attributes" : {
                        "POSITION" : 15,
                        "NORMAL" : 16
                    },
                    "indices" : 17,
                    "material" : 5
                }
            ]
        },
        {
            "name" : "FinalBaseMesh.006",
            "primitives" : [
                {
                    "attributes" : {
                        "POSITION" : 18,
                        "NORMAL" : 19
                    },
                    "indices" : 20,
                    "material" : 6
                }
            ]
        },
        {
            "name" : "FinalBaseMesh.007",
            "primitives" : [
                {
                    "attributes" : {
                        "POSITION" : 21,
                        "NORMAL" : 22
                    },
                    "indices" : 23,
                    "material" : 7
                }
            ]
        },
        {
            "name" : "FinalBaseMesh.008",
            "primitives" : [
                {
                    "attributes" : {
                        "POSITION" : 24,
                        "NORMAL" : 25
                    },
                    "indices" : 26,
                    "material" : 8
                }
            ]
        },
        {
            "name" : "FinalBaseMesh.009",
            "primitives" : [
                {
                    "attributes" : {
                        "POSITION" : 27,
                        "NORMAL" : 28
                    },
                    "indices" : 29,
                    "material" : 9
                }
            ]
        }
    ],
    "accessors" : [
        {
            "bufferView" : 0,
            "componentType" : 5126,
            "count" : 906,
            "max" : [
                5.488100051879883,
                1.1526000499725342,
                -0.6552000045776367
            ],
            "min" : [
                -5.570799827575684,
                -1.6291999816894531,
                -18.15719985961914
            ],
            "type" : "VEC3"
        },
        {
            "bufferView" : 1,
            "componentType" : 5126,
            "count" : 906,
            "type" : "VEC3"
        },
        {
            "bufferView" : 2,
            "componentType" : 5123,
            "count" : 2472,
            "type" : "SCALAR"
        },
        {
            "bufferView" : 3,
            "componentType" : 5126,
            "count" : 3208,
            "max" : [
                5.84250020980835,
                0.6247000098228455,
                -9.186599731445312
            ],
            "min" : [
                -5.84250020980835,
                -1.2122999429702759,
                -11.556900024414062
            ],
            "type" : "VEC3"
        },
        {
            "bufferView" : 4,
            "componentType" : 5126,
            "count" : 3208,
            "type" : "VEC3"
        },
        {
            "bufferView" : 5,
            "componentType" : 5123,
            "count" : 19008,
            "type" : "SCALAR"
        },
        {
            "bufferView" : 6,
            "componentType" : 5126,
            "count" : 3002,
            "max" : [
                2.6412999629974365,
                1.9170000553131104,
                0.05660000070929527
            ],
            "min" : [
                -2.6412999629974365,
                -1.4459999799728394,
                -0.9157999753952026
            ],
            "type" : "VEC3"
        },
        {
            "bufferView" : 7,
            "componentType" : 5126,
            "count" : 3002,
            "type" : "VEC3"
        },
        {
            "bufferView" : 8,
            "componentType" : 5123,
            "count" : 17664,
            "type" : "SCALAR"
        },
        {
            "bufferView" : 9,
            "componentType" : 5126,
            "count" : 6591,
            "max" : [
                2.470900058746338,
                1.086899995803833,
                -0.7577000260353088
            ],
            "min" : [
                -2.4707999229431152,
                -1.4592000246047974,
                -9.567700386047363
            ],
            "type" : "VEC3"
        },
        {
            "bufferView" : 10,
            "componentType" : 5126,
            "count" : 6591,
            "type" : "VEC3"
        },
        {
            "bufferView" : 11,
            "componentType" : 5123,
            "count" : 38862,
            "type" : "SCALAR"
        },
        {
            "bufferView" : 12,
            "componentType" : 5126,
            "count" : 1632,
            "max" : [
                2.1319000720977783,
                1.19159996509552,
                -9.481599807739258
            ],
            "min" : [
                -2.1317999362945557,
                -1.5425000190734863,
                -11.354399681091309
            ],
            "type" : "VEC3"
        },
        {
            "bufferView" : 13,
            "componentType" : 5126,
            "count" : 1632,
            "type" : "VEC3"
        },
        {
            "bufferView" : 14,
            "componentType" : 5123,
            "count" : 9168,
            "type" : "SCALAR"
        },
        {
            "bufferView" : 15,
            "componentType" : 5126,
            "count" : 4398,
            "max" : [
                2.1280999183654785,
                1.1907000541687012,
                -11.21030044555664
            ],
            "min" : [
                -2.0336999893188477,
                -1.8530999422073364,
                -17.124900817871094
            ],
            "type" : "VEC3"
        },
        {
            "bufferView" : 16,
            "componentType" : 5126,
            "count" : 4398,
            "type" : "VEC3"
        },
        {
            "bufferView" : 17,
            "componentType" : 5123,
            "count" : 25548,
            "type" : "SCALAR"
        },
        {
            "bufferView" : 18,
            "componentType" : 5126,
            "count" : 2882,
            "max" : [
                5.326700210571289,
                0.27549999952316284,
                -11.414799690246582
            ],
            "min" : [
                -5.399600028991699,
                -1.7418999671936035,
                -16.997400283813477
            ],
            "type" : "VEC3"
        },
        {
            "bufferView" : 19,
            "componentType" : 5126,
            "count" : 2882,
            "type" : "VEC3"
        },
        {
            "bufferView" : 20,
            "componentType" : 5123,
            "count" : 16524,
            "type" : "SCALAR"
        },
        {
            "bufferView" : 21,
            "componentType" : 5126,
            "count" : 643,
            "max" : [
                2.5071001052856445,
                0.2669000029563904,
                -14.58240032196045
            ],
            "min" : [
                -2.5897998809814453,
                -1.6291999816894531,
                -16.3356990814209
            ],
            "type" : "VEC3"
        },
        {
            "bufferView" : 22,
            "componentType" : 5126,
            "count" : 643,
            "type" : "VEC3"
        },
        {
            "bufferView" : 23,
            "componentType" : 5123,
            "count" : 3282,
            "type" : "SCALAR"
        },
        {
            "bufferView" : 24,
            "componentType" : 5126,
            "count" : 618,
            "max" : [
                2.40939998626709,
                0.9122999906539917,
                -17.0447998046875
            ],
            "min" : [
                -2.40939998626709,
                -1.4859000444412231,
                -18.03070068359375
            ],
            "type" : "VEC3"
        },
        {
            "bufferView" : 25,
            "componentType" : 5126,
            "count" : 618,
            "type" : "VEC3"
        },
        {
            "bufferView" : 26,
            "componentType" : 5123,
            "count" : 3240,
            "type" : "SCALAR"
        },
        {
            "bufferView" : 27,
            "componentType" : 5126,
            "count" : 1865,
            "max" : [
                1.0325000286102295,
                1.3184000253677368,
                -17.956899642944336
            ],
            "min" : [
                -1.0325000286102295,
                -1.2086000442504883,
                -20.684099197387695
            ],
            "type" : "VEC3"
        },
        {
            "bufferView" : 28,
            "componentType" : 5126,
            "count" : 1865,
            "type" : "VEC3"
        },
        {
            "bufferView" : 29,
            "componentType" : 5123,
            "count" : 10986,
            "type" : "SCALAR"
        }
    ],
    "bufferViews" : [
        {
            "buffer" : 0,
            "byteLength" : 10872,
            "byteOffset" : 0
        },
        {
            "buffer" : 0,
            "byteLength" : 10872,
            "byteOffset" : 10872
        },
        {
            "buffer" : 0,
            "byteLength" : 4944,
            "byteOffset" : 21744
        },
        {
            "buffer" : 0,
            "byteLength" : 38496,
            "byteOffset" : 26688
        },
        {
            "buffer" : 0,
            "byteLength" : 38496,
            "byteOffset" : 65184
        },
        {
            "buffer" : 0,
            "byteLength" : 38016,
            "byteOffset" : 103680
        },
        {
            "buffer" : 0,
            "byteLength" : 36024,
            "byteOffset" : 141696
        },
        {
            "buffer" : 0,
            "byteLength" : 36024,
            "byteOffset" : 177720
        },
        {
            "buffer" : 0,
            "byteLength" : 35328,
            "byteOffset" : 213744
        },
        {
            "buffer" : 0,
            "byteLength" : 79092,
            "byteOffset" : 249072
        },
        {
            "buffer" : 0,
            "byteLength" : 79092,
            "byteOffset" : 328164
        },
        {
            "buffer" : 0,
            "byteLength" : 77724,
            "byteOffset" : 407256
        },
        {
            "buffer" : 0,
            "byteLength" : 19584,
            "byteOffset" : 484980
        },
        {
            "buffer" : 0,
            "byteLength" : 19584,
            "byteOffset" : 504564
        },
        {
            "buffer" : 0,
            "byteLength" : 18336,
            "byteOffset" : 524148
        },
        {
            "buffer" : 0,
            "byteLength" : 52776,
            "byteOffset" : 542484
        },
        {
            "buffer" : 0,
            "byteLength" : 52776,
            "byteOffset" : 595260
        },
        {
            "buffer" : 0,
            "byteLength" : 51096,
            "byteOffset" : 648036
        },
        {
            "buffer" : 0,
            "byteLength" : 34584,
            "byteOffset" : 699132
        },
        {
            "buffer" : 0,
            "byteLength" : 34584,
            "byteOffset" : 733716
        },
        {
            "buffer" : 0,
            "byteLength" : 33048,
            "byteOffset" : 768300
        },
        {
            "buffer" : 0,
            "byteLength" : 7716,
            "byteOffset" : 801348
        },
        {
            "buffer" : 0,
            "byteLength" : 7716,
            "byteOffset" : 809064
        },
        {
            "buffer" : 0,
            "byteLength" : 6564,
            "byteOffset" : 816780
        },
        {
            "buffer" : 0,
            "byteLength" : 7416,
            "byteOffset" : 823344
        },
        {
            "buffer" : 0,
            "byteLength" : 7416,
            "byteOffset" : 830760
        },
        {
            "buffer" : 0,
            "byteLength" : 6480,
            "byteOffset" : 838176
        },
        {
            "buffer" : 0,
            "byteLength" : 22380,
            "byteOffset" : 844656
        },
        {
            "buffer" : 0,
            "byteLength" : 22380,
            "byteOffset" : 867036
        },
        {
            "buffer" : 0,
            "byteLength" : 21972,
            "byteOffset" : 889416
        }
    ],
    "buffers" : [
        {
            "byteLength" : 911388,
            "uri" : "data:application/octet-stream;base64,"
        }
    ]
}
